<svg xmlns="http://www.w3.org/2000/svg" width="1200" height="600" viewBox="0 0 1200 600"><rect width="100%" height="100%" fill="#1a1a1a"/><path fill="#EE82EE" d="M272.275 237.65v126.53h-23.63V237.65zm43.57 40.69 1.49 7.09q2.71-2.71 5.73-5.03t6.39-3.94 7.22-2.54 8.4-.92q7.35 0 13.03 2.5 5.69 2.49 9.5 7 3.8 4.5 5.77 10.76t1.97 13.78v57.14h-21.61v-57.14q0-8.22-3.76-12.73-3.77-4.51-11.47-4.51-5.6 0-10.5 2.54t-9.27 6.91v64.93h-21.61V274.4h13.21q4.2 0 5.51 3.94m143.85-3.94h17.06l-35.61 89.78h-19.6l-35.61-89.78h17.85q2.45 0 4.07 1.14t2.14 2.89l17.33 47.95q1.4 4.2 2.45 8.22 1.05 4.03 1.83 8.05.88-4.02 1.93-8.05 1.05-4.02 2.54-8.22l17.67-47.95q.61-1.75 2.19-2.89 1.57-1.14 3.76-1.14m68.25-1.4q9.98 0 18.16 3.24t14 9.19 8.97 14.52q3.15 8.58 3.15 19.17 0 10.67-3.15 19.25-3.15 8.57-8.97 14.61t-14 9.27q-8.18 3.24-18.16 3.24-10.06 0-18.29-3.24-8.22-3.23-14.04-9.27t-9.01-14.61q-3.2-8.58-3.2-19.25 0-10.59 3.2-19.17 3.19-8.57 9.01-14.52t14.04-9.19q8.23-3.24 18.29-3.24m0 75.87q11.2 0 16.58-7.53 5.38-7.52 5.38-22.05 0-14.52-5.38-22.14-5.38-7.61-16.58-7.61-11.37 0-16.84 7.66-5.47 7.65-5.47 22.09t5.47 22.01 16.84 7.57m61.51-74.47h21.7v89.78h-21.7zm24.68-26.16q0 2.8-1.14 5.25t-3.02 4.29-4.42 2.93q-2.53 1.09-5.42 1.09-2.8 0-5.3-1.09-2.49-1.09-4.33-2.93-1.83-1.84-2.93-4.29-1.09-2.45-1.09-5.25 0-2.89 1.09-5.42 1.1-2.54 2.93-4.38 1.84-1.84 4.33-2.93 2.5-1.09 5.3-1.09 2.89 0 5.42 1.09 2.54 1.09 4.42 2.93t3.02 4.38q1.14 2.53 1.14 5.42m78.75 35.88-4.9 7.78q-.88 1.4-1.84 1.97t-2.45.57q-1.57 0-3.37-.87-1.79-.88-4.15-1.97-2.37-1.1-5.39-1.97-3.01-.88-7.13-.88-6.38 0-10.02 2.72-3.63 2.71-3.63 7.08 0 2.89 1.88 4.86 1.89 1.97 4.99 3.46 3.11 1.48 7.05 2.67 3.93 1.18 8 2.58t8.01 3.19 7.04 4.55q3.11 2.76 4.99 6.61t1.88 9.27q0 6.48-2.32 11.95-2.32 5.46-6.87 9.45-4.55 3.98-11.24 6.21t-15.44 2.23q-4.64 0-9.06-.83t-8.49-2.32-7.52-3.5q-3.46-2.01-6.08-4.38l4.98-8.22q.97-1.49 2.28-2.28 1.31-.78 3.32-.78 2.02 0 3.81 1.13 1.79 1.14 4.16 2.45 2.36 1.32 5.55 2.45 3.2 1.14 8.1 1.14 3.85 0 6.6-.92 2.76-.92 4.55-2.4 1.8-1.49 2.63-3.46t.83-4.07q0-3.15-1.88-5.16t-4.99-3.5-7.09-2.67-8.14-2.58q-4.15-1.4-8.13-3.28t-7.09-4.77-4.99-7.09-1.88-10.15q0-5.51 2.19-10.5t6.43-8.7q4.24-3.72 10.59-5.95 6.34-2.24 14.65-2.24 9.28 0 16.89 3.07 7.61 3.06 12.69 8.05m72.97-9.72h21.62v89.78h-13.22q-4.28 0-5.42-3.94l-1.49-7.17q-5.51 5.6-12.16 9.05-6.65 3.46-15.66 3.46-7.35 0-13-2.49-5.64-2.5-9.49-7.05t-5.82-10.8q-1.97-6.26-1.97-13.79V274.4h21.61v57.05q0 8.23 3.81 12.74 3.81 4.5 11.42 4.5 5.6 0 10.5-2.49 4.9-2.5 9.27-6.87zm62.04 5.43 1.31 10.15q4.2-8.05 9.98-12.64 5.77-4.6 13.65-4.6 6.21 0 9.97 2.71l-1.4 16.19q-.43 1.58-1.27 2.23-.83.66-2.23.66-1.31 0-3.89-.44t-5.03-.44q-3.59 0-6.39 1.05t-5.03 3.02-3.94 4.77q-1.7 2.8-3.19 6.39v55.3h-21.61V274.4h12.68q3.33 0 4.64 1.19 1.31 1.18 1.75 4.24m63.26 29.14h40.78q0-4.2-1.18-7.92t-3.55-6.52q-2.36-2.8-5.99-4.42t-8.44-1.62q-9.37 0-14.75 5.34t-6.87 15.14m55.13 13.03h-55.56q.52 6.92 2.45 11.95 1.92 5.03 5.07 8.31t7.48 4.9 9.58 1.62 9.06-1.23q3.81-1.22 6.65-2.71t4.99-2.71q2.14-1.23 4.15-1.23 2.72 0 4.03 2.02l6.21 7.87q-3.59 4.2-8.05 7.05-4.46 2.84-9.32 4.55-4.85 1.7-9.89 2.4-5.03.7-9.75.7-9.36 0-17.41-3.1-8.05-3.11-14-9.19t-9.37-15.05q-3.41-8.97-3.41-20.78 0-9.19 2.98-17.28 2.97-8.1 8.53-14.09 5.55-6 13.56-9.5t18.07-3.5q8.49 0 15.66 2.72 7.18 2.71 12.34 7.92 5.16 5.2 8.09 12.77t2.93 17.28q0 4.9-1.05 6.61-1.05 1.7-4.02 1.7"/></svg>