<svg xmlns="http://www.w3.org/2000/svg" width="800" height="600" viewBox="0 0 800 600"><rect width="100%" height="100%" fill="#1a1a1a"/><path fill="#EE82EE" d="M195.495 277.02h-22.47v14.03h17.71v7.25h-17.71v14.31h22.47v7.53h-31.92v-50.61h31.92zm15.61 43.12h-8.64v-35.91h5.28q1.68 0 2.2 1.57l.56 2.66q.95-1.05 1.98-1.92 1.04-.88 2.21-1.51t2.52-.99q1.35-.37 2.95-.37 3.4 0 5.59 1.84 2.19 1.83 3.27 4.88.84-1.79 2.1-3.06 1.26-1.28 2.77-2.09 1.5-.8 3.2-1.19 1.69-.38 3.41-.38 2.97 0 5.28.91t3.89 2.66 2.4 4.27.82 5.77v22.86h-8.64v-22.86q0-3.43-1.51-5.16-1.5-1.73-4.41-1.73-1.33 0-2.47.45-1.14.46-1.99 1.32-.86.85-1.35 2.15-.49 1.29-.49 2.97v22.86h-8.68v-22.86q0-3.6-1.45-5.25-1.46-1.64-4.25-1.64-1.9 0-3.52.93-1.63.92-3.03 2.53zm68.95-9.28v-6.05q-3.74.17-6.3.65-2.55.47-4.1 1.2-1.53.74-2.2 1.72t-.67 2.13q0 2.28 1.35 3.26t3.52.98q2.66 0 4.6-.96 1.95-.97 3.8-2.93M261.785 292l-1.54-2.77q6.2-5.67 14.91-5.67 3.15 0 5.63 1.04 2.49 1.03 4.21 2.87 1.71 1.83 2.6 4.39.9 2.55.9 5.6v22.68h-3.93q-1.22 0-1.88-.37-.67-.37-1.06-1.49l-.76-2.59q-1.37 1.23-2.66 2.16-1.3.92-2.7 1.55t-2.99.97q-1.59.33-3.52.33-2.27 0-4.2-.61-1.92-.62-3.32-1.84-1.41-1.23-2.17-3.05-.77-1.82-.77-4.23 0-1.37.45-2.71.46-1.35 1.49-2.58 1.03-1.22 2.68-2.31 1.64-1.08 4.04-1.89 2.4-.8 5.58-1.31 3.19-.51 7.28-.61v-2.1q0-3.61-1.54-5.34t-4.45-1.73q-2.09 0-3.48.49-1.38.49-2.43 1.1t-1.91 1.1-1.9.49q-.91 0-1.54-.47-.64-.47-1.02-1.1m35.11-7.77h8.68v35.91h-8.68zm9.87-10.47q0 1.12-.46 2.1-.45.98-1.21 1.72-.75.73-1.76 1.17-1.02.44-2.18.44-1.11 0-2.11-.44t-1.73-1.17q-.74-.74-1.18-1.72-.43-.98-.43-2.1 0-1.15.43-2.17.44-1.01 1.18-1.75.73-.73 1.73-1.17t2.11-.44q1.16 0 2.18.44 1.01.44 1.76 1.17.76.74 1.21 1.75.46 1.02.46 2.17m7.73-5.63h8.65v52.01h-8.65zm71.02 1.4v7.73h-15.26v42.88h-9.42v-42.88h-15.26v-7.73zm12.11 28.52h16.31q0-1.68-.48-3.16-.47-1.49-1.41-2.61-.95-1.12-2.4-1.77t-3.38-.65q-3.74 0-5.9 2.14-2.15 2.13-2.74 6.05m22.05 5.22h-22.23q.21 2.76.98 4.78.77 2.01 2.03 3.32t2.99 1.96q1.74.65 3.84.65t3.62-.49 2.66-1.09q1.14-.59 1.99-1.08.86-.49 1.67-.49 1.08 0 1.61.8l2.48 3.15q-1.43 1.68-3.22 2.82-1.78 1.14-3.73 1.82-1.94.68-3.95.97-2.01.28-3.9.28-3.75 0-6.97-1.25-3.22-1.24-5.6-3.67-2.38-2.44-3.74-6.02-1.37-3.59-1.37-8.32 0-3.67 1.19-6.91t3.41-5.63q2.23-2.4 5.43-3.8t7.23-1.4q3.39 0 6.26 1.08 2.87 1.09 4.94 3.17 2.06 2.08 3.23 5.11 1.18 3.03 1.18 6.91 0 1.96-.42 2.65-.42.68-1.61.68m17.15 16.87h-8.65v-35.91h5.29q1.68 0 2.2 1.57l.56 2.66q.95-1.05 1.98-1.92 1.03-.88 2.2-1.51 1.18-.63 2.52-.99 1.35-.37 2.96-.37 3.4 0 5.58 1.84 2.19 1.83 3.28 4.88.84-1.79 2.1-3.06 1.26-1.28 2.76-2.09 1.51-.8 3.2-1.19 1.7-.38 3.42-.38 2.97 0 5.28.91t3.89 2.66q1.57 1.75 2.39 4.27.83 2.52.83 5.77v22.86h-8.65v-22.86q0-3.43-1.5-5.16-1.51-1.73-4.41-1.73-1.33 0-2.47.45-1.14.46-2 1.32-.85.85-1.34 2.15-.49 1.29-.49 2.97v22.86h-8.68v-22.86q0-3.6-1.46-5.25-1.45-1.64-4.25-1.64-1.89 0-3.52.93-1.62.92-3.02 2.53zm58.62-25.41v16.1q1.47 1.78 3.2 2.52 1.74.73 3.77.73 1.96 0 3.53-.73 1.58-.74 2.68-2.24 1.1-1.51 1.7-3.8.59-2.29.59-5.41 0-3.15-.51-5.33-.5-2.19-1.45-3.56-.94-1.36-2.29-1.99t-3.06-.63q-2.7 0-4.59 1.14-1.89 1.13-3.57 3.2m-1.15-8.93.7 3.33q2.2-2.49 5-4.03t6.58-1.54q2.94 0 5.37 1.23 2.44 1.22 4.2 3.55 1.77 2.33 2.73 5.74.97 3.41.97 7.82 0 4.03-1.09 7.46-1.08 3.43-3.1 5.95-2.01 2.52-4.86 3.94t-6.39 1.42q-3.01 0-5.14-.93-2.14-.93-3.82-2.58v14.71h-8.64v-47.64h5.28q1.68 0 2.21 1.57m32.37-17.67h8.65v52.01h-8.65zm36.26 42.73v-6.05q-3.74.17-6.3.65-2.55.47-4.09 1.2-1.54.74-2.21 1.72-.66.98-.66 2.13 0 2.28 1.34 3.26 1.35.98 3.52.98 2.66 0 4.6-.96 1.95-.97 3.8-2.93M544.655 292l-1.54-2.77q6.2-5.67 14.91-5.67 3.15 0 5.64 1.04 2.48 1.03 4.2 2.87 1.71 1.83 2.6 4.39.9 2.55.9 5.6v22.68h-3.92q-1.23 0-1.89-.37-.67-.37-1.05-1.49l-.77-2.59q-1.37 1.23-2.66 2.16-1.3.92-2.7 1.55t-2.99.97q-1.59.33-3.52.33-2.27 0-4.2-.61-1.92-.62-3.32-1.84-1.4-1.23-2.17-3.05t-.77-4.23q0-1.37.45-2.71.46-1.35 1.49-2.58 1.03-1.22 2.68-2.31 1.64-1.08 4.04-1.89 2.4-.8 5.58-1.31 3.19-.51 7.28-.61v-2.1q0-3.61-1.54-5.34t-4.44-1.73q-2.1 0-3.49.49-1.38.49-2.43 1.1t-1.91 1.1q-.85.49-1.9.49-.91 0-1.54-.47t-1.02-1.1m46.8 28.7q-4.69 0-7.2-2.64-2.5-2.65-2.5-7.3V290.7h-3.67q-.7 0-1.19-.45-.49-.46-.49-1.37v-3.43l5.77-.94 1.82-9.8q.18-.7.67-1.09.49-.38 1.26-.38h4.48v11.3h9.59v6.16h-9.59v19.46q0 1.69.82 2.63t2.26.94q.8 0 1.34-.19.55-.19.95-.4t.72-.4q.31-.2.63-.2.38 0 .63.2.24.19.52.57l2.59 4.2q-1.89 1.58-4.34 2.38-2.45.81-5.07.81m20.89-22.65h16.31q0-1.68-.47-3.16-.47-1.49-1.42-2.61-.94-1.12-2.4-1.77-1.45-.65-3.37-.65-3.75 0-5.9 2.14-2.15 2.13-2.75 6.05m22.05 5.22h-22.22q.21 2.76.98 4.78.77 2.01 2.03 3.32t2.99 1.96 3.83.65 3.62-.49q1.53-.49 2.66-1.09 1.14-.59 2-1.08t1.66-.49q1.09 0 1.61.8l2.49 3.15q-1.44 1.68-3.22 2.82-1.79 1.14-3.73 1.82t-3.96.97q-2.01.28-3.9.28-3.74 0-6.96-1.25-3.22-1.24-5.6-3.67-2.38-2.44-3.75-6.02-1.36-3.59-1.36-8.32 0-3.67 1.19-6.91t3.41-5.63q2.22-2.4 5.42-3.8 3.21-1.4 7.23-1.4 3.4 0 6.27 1.08 2.87 1.09 4.93 3.17 2.07 2.08 3.24 5.11t1.17 6.91q0 1.96-.42 2.65-.42.68-1.61.68"/></svg>