<svg xmlns="http://www.w3.org/2000/svg" width="800" height="600" viewBox="0 0 800 600"><rect width="100%" height="100%" fill="#1a1a1a"/><path fill="#EE82EE" d="M209.555 276.535h6.7v47.72h-7.82v-30.82q0-1.85.2-4l-14.42 27.1q-1.03 1.94-3.14 1.94h-1.25q-2.12 0-3.14-1.94l-14.58-27.19q.09 1.08.16 2.14t.07 1.95v30.82h-7.82v-47.72h6.69q.6 0 1.03.03.43.04.77.17.35.13.63.43t.54.79l14.29 26.5q.56 1.06 1.04 2.18t.94 2.31q.47-1.22.96-2.36.5-1.14 1.06-2.2l14.09-26.43q.26-.49.56-.79t.64-.43q.35-.13.78-.17.43-.03 1.02-.03m22.47 26.9h15.38q0-1.59-.44-2.99-.45-1.4-1.34-2.46-.89-1.05-2.26-1.66-1.37-.62-3.19-.62-3.53 0-5.56 2.02-2.03 2.01-2.59 5.71m20.79 4.91h-20.95q.2 2.61.92 4.51.73 1.9 1.92 3.13 1.18 1.24 2.82 1.85 1.63.61 3.61.61t3.42-.46q1.43-.46 2.51-1.02 1.07-.56 1.88-1.03.8-.46 1.56-.46 1.03 0 1.52.76l2.34 2.97q-1.35 1.58-3.03 2.66-1.68 1.07-3.52 1.71-1.83.65-3.72.91-1.9.26-3.68.26-3.54 0-6.57-1.17-3.04-1.17-5.28-3.46-2.25-2.3-3.53-5.68-1.29-3.38-1.29-7.84 0-3.46 1.12-6.51 1.12-3.06 3.22-5.32t5.12-3.58q3.01-1.32 6.81-1.32 3.2 0 5.91 1.03 2.7 1.02 4.65 2.98 1.95 1.97 3.05 4.82 1.11 2.86 1.11 6.52 0 1.85-.4 2.49-.39.64-1.52.64m15.22-15.9.49 3.83q1.59-3.04 3.76-4.77 2.18-1.73 5.15-1.73 2.34 0 3.76 1.02l-.52 6.1q-.17.6-.48.84-.32.25-.84.25-.5 0-1.47-.16-.98-.17-1.9-.17-1.35 0-2.41.4-1.06.39-1.9 1.14-.84.74-1.48 1.79-.65 1.06-1.21 2.41v20.86h-8.15v-33.86h4.79q1.25 0 1.75.45.49.44.66 1.6m43.82 2.14-2.14 2.97q-.37.46-.71.73-.35.26-1.01.26-.63 0-1.22-.38-.6-.38-1.42-.85-.83-.48-1.96-.86-1.14-.38-2.83-.38-2.14 0-3.76.77-1.61.78-2.69 2.23-1.07 1.45-1.6 3.52-.53 2.06-.53 4.66 0 2.71.58 4.82t1.67 3.55 2.64 2.18 3.5.74q1.94 0 3.15-.48 1.2-.48 2.03-1.05.82-.58 1.43-1.06t1.37-.48q.99 0 1.49.76l2.34 2.97q-1.35 1.58-2.94 2.66-1.58 1.07-3.28 1.71-1.7.65-3.5.91t-3.58.26q-3.13 0-5.91-1.17-2.77-1.17-4.85-3.41-2.08-2.25-3.28-5.5t-1.2-7.41q0-3.72 1.07-6.91 1.07-3.18 3.15-5.51t5.15-3.65 7.06-1.32q3.79 0 6.65 1.23 2.85 1.22 5.13 3.49m13.56-19.37v18.81q1.98-1.85 4.36-3 2.38-1.16 5.58-1.16 2.77 0 4.91.94 2.15.94 3.58 2.64 1.44 1.7 2.18 4.06t.74 5.2v21.55h-8.15v-21.55q0-3.1-1.42-4.8-1.41-1.7-4.32-1.7-2.11 0-3.96.96-1.85.95-3.5 2.6v24.49h-8.15v-49.04zm46.96 40.29v-5.7q-3.53.16-5.94.61-2.41.44-3.86 1.13-1.45.7-2.08 1.62-.62.93-.62 2.01 0 2.15 1.27 3.07 1.27.93 3.31.93 2.51 0 4.34-.91t3.58-2.76m-17.22-17.78-1.46-2.61q5.85-5.34 14.06-5.34 2.97 0 5.32.97 2.34.97 3.96 2.7 1.61 1.74 2.45 4.15.85 2.4.85 5.28v21.38h-3.7q-1.16 0-1.78-.35-.63-.34-.99-1.4l-.73-2.44q-1.29 1.15-2.51 2.03-1.22.87-2.54 1.47-1.32.59-2.82.9-1.5.32-3.32.32-2.14 0-3.96-.58-1.81-.58-3.13-1.73-1.32-1.16-2.05-2.87-.72-1.72-.72-4 0-1.28.43-2.55t1.4-2.43q.97-1.15 2.52-2.18 1.55-1.02 3.82-1.78 2.26-.76 5.26-1.24 3-.47 6.86-.57v-1.98q0-3.4-1.45-5.04-1.45-1.63-4.19-1.63-1.98 0-3.28.46-1.31.46-2.3 1.04t-1.8 1.04q-.8.46-1.79.46-.86 0-1.46-.44-.59-.45-.95-1.04m39.89-5.84.56 2.67q1.03-1.02 2.17-1.9 1.13-.87 2.41-1.48 1.27-.61 2.72-.96t3.17-.35q2.77 0 4.91.94 2.15.94 3.58 2.64 1.44 1.7 2.18 4.06t.74 5.2v21.55h-8.15v-21.55q0-3.1-1.42-4.8t-4.32-1.7q-2.11 0-3.96.96-1.85.95-3.5 2.6v24.49h-8.15v-33.86h4.98q1.59 0 2.08 1.49m41.45 32.9q-4.42 0-6.78-2.49-2.36-2.5-2.36-6.88v-18.91h-3.46q-.66 0-1.13-.43-.46-.43-.46-1.29v-3.23l5.45-.89 1.71-9.24q.17-.66.63-1.03.46-.36 1.19-.36h4.22v10.66h9.04v5.81h-9.04v18.34q0 1.59.78 2.48.77.89 2.13.89.75 0 1.27-.18.51-.18.89-.38t.67-.38q.3-.18.6-.18.36 0 .59.18t.5.54l2.44 3.96q-1.78 1.49-4.09 2.25t-4.79.76m39.47-24.26h6.63q2.44 0 4.26-.61 1.81-.61 3.02-1.75 1.2-1.14 1.8-2.77.59-1.63.59-3.65 0-1.91-.59-3.46-.6-1.55-1.78-2.64-1.19-1.09-3.01-1.67-1.81-.57-4.29-.57h-6.63zm-8.88-23.99h15.51q4.79 0 8.29 1.12 3.49 1.13 5.77 3.14t3.38 4.82q1.11 2.8 1.11 6.13 0 3.47-1.16 6.36-1.15 2.88-3.46 4.96t-5.79 3.24q-3.48 1.15-8.14 1.15h-6.63v16.8h-8.88zm54.55 13.33q3.76 0 6.85 1.23 3.08 1.22 5.28 3.46 2.19 2.24 3.38 5.48 1.19 3.23 1.19 7.22 0 4.03-1.19 7.26-1.19 3.24-3.38 5.52-2.2 2.27-5.28 3.49-3.09 1.22-6.85 1.22-3.79 0-6.9-1.22-3.1-1.22-5.29-3.49-2.2-2.28-3.4-5.52-1.21-3.23-1.21-7.26 0-3.99 1.21-7.22 1.2-3.24 3.4-5.48 2.19-2.24 5.29-3.46 3.11-1.23 6.9-1.23m0 28.61q4.23 0 6.26-2.83 2.02-2.84 2.02-8.32t-2.02-8.35q-2.03-2.87-6.26-2.87-4.29 0-6.35 2.89t-2.06 8.33q0 5.45 2.06 8.3t6.35 2.85m30.13-26.03.5 3.83q1.58-3.04 3.76-4.77t5.15-1.73q2.34 0 3.76 1.02l-.53 6.1q-.17.6-.48.84-.31.25-.84.25-.5 0-1.47-.16-.97-.17-1.9-.17-1.35 0-2.41.4-1.05.39-1.89 1.14-.84.74-1.49 1.79-.64 1.06-1.2 2.41v20.86h-8.15v-33.86h4.78q1.26 0 1.75.45.5.44.66 1.6m28.71 32.34q-4.42 0-6.78-2.49-2.36-2.5-2.36-6.88v-18.91h-3.47q-.66 0-1.12-.43t-.46-1.29v-3.23l5.45-.89 1.71-9.24q.17-.66.63-1.03.46-.36 1.19-.36h4.22v10.66h9.04v5.81h-9.04v18.34q0 1.59.78 2.48.77.89 2.12.89.76 0 1.28-.18.51-.18.89-.38t.67-.38q.3-.18.6-.18.36 0 .59.18t.5.54l2.44 3.96q-1.78 1.49-4.09 2.25t-4.79.76m31.15-9.28v-5.7q-3.53.16-5.94.61-2.41.44-3.86 1.13-1.45.7-2.08 1.62-.62.93-.62 2.01 0 2.15 1.27 3.07 1.27.93 3.31.93 2.51 0 4.34-.91t3.58-2.76m-17.22-17.78-1.46-2.61q5.85-5.34 14.06-5.34 2.97 0 5.32.97 2.34.97 3.96 2.7 1.61 1.74 2.45 4.15.85 2.4.85 5.28v21.38h-3.7q-1.16 0-1.78-.35-.63-.34-.99-1.4l-.73-2.44q-1.29 1.15-2.51 2.03-1.22.87-2.54 1.47-1.32.59-2.82.9-1.5.32-3.32.32-2.14 0-3.96-.58-1.81-.58-3.13-1.73-1.32-1.16-2.05-2.87-.72-1.72-.72-4 0-1.28.43-2.55t1.4-2.43q.97-1.15 2.52-2.18 1.55-1.02 3.82-1.78 2.26-.76 5.26-1.24 3-.47 6.86-.57v-1.98q0-3.4-1.45-5.04-1.45-1.63-4.19-1.63-1.98 0-3.28.46-1.31.46-2.3 1.04t-1.8 1.04q-.8.46-1.79.46-.86 0-1.46-.44-.59-.45-.95-1.04m32.93-22.51h8.15v49.04h-8.15z"/></svg>