<svg xmlns="http://www.w3.org/2000/svg" width="800" height="600" viewBox="0 0 800 600"><rect width="100%" height="100%" fill="#1a1a1a"/><path fill="#EE82EE" d="M196.41 312.035q.7 0 1.23.53l3.34 3.63q-2.77 3.43-6.82 5.26-4.05 1.82-9.72 1.82-5.07 0-9.12-1.73-4.04-1.73-6.91-4.82-2.87-3.08-4.39-7.37-1.53-4.28-1.53-9.35 0-5.14 1.64-9.41 1.63-4.27 4.61-7.35 2.98-3.09 7.1-4.81 4.13-1.71 9.14-1.71 4.98 0 8.84 1.64 3.85 1.63 6.56 4.28l-2.83 3.94q-.25.37-.65.66-.39.28-1.08.28-.48 0-.98-.27-.5-.26-1.1-.66-.6-.39-1.39-.86-.79-.48-1.83-.87t-2.41-.66-3.16-.27q-3.06 0-5.59 1.09-2.54 1.08-4.37 3.15-1.82 2.06-2.83 5.04-1.01 2.97-1.01 6.79 0 3.84 1.09 6.83 1.08 2.99 2.94 5.04t4.38 3.14q2.52 1.08 5.42 1.08 1.73 0 3.13-.19 1.41-.19 2.59-.6t2.23-1.05q1.06-.65 2.1-1.59.31-.28.66-.46.35-.17.72-.17m29.24-21.58h7.78v32.32h-4.76q-1.54 0-1.95-1.42l-.54-2.58q-1.98 2.02-4.38 3.26-2.39 1.24-5.64 1.24-2.64 0-4.67-.89-2.03-.9-3.42-2.54t-2.1-3.89q-.7-2.25-.7-4.96v-20.54h7.78v20.54q0 2.96 1.37 4.58t4.11 1.62q2.01 0 3.78-.89 1.76-.9 3.34-2.48zm36.95 3.5-1.77 2.8q-.31.5-.66.71-.35.2-.88.2-.57 0-1.21-.31-.65-.32-1.5-.71t-1.94-.71q-1.08-.31-2.57-.31-2.29 0-3.6.97-1.31.98-1.31 2.55 0 1.04.68 1.75t1.79 1.25q1.12.53 2.54.96 1.42.42 2.88.93 1.47.5 2.88 1.15 1.42.64 2.54 1.64 1.12.99 1.79 2.37.68 1.39.68 3.34 0 2.33-.83 4.3-.84 1.97-2.48 3.4-1.63 1.44-4.04 2.24t-5.56.8q-1.67 0-3.26-.3-1.59-.29-3.06-.83-1.46-.54-2.71-1.26-1.24-.72-2.19-1.57l1.8-2.97q.35-.53.82-.82.47-.28 1.19-.28.73 0 1.37.41.65.41 1.5.88.85.48 2 .88 1.15.41 2.92.41 1.38 0 2.37-.33 1-.33 1.64-.86.65-.54.95-1.25t.3-1.46q0-1.14-.68-1.86t-1.8-1.26-2.55-.96q-1.43-.43-2.93-.93-1.49-.5-2.93-1.18-1.43-.68-2.55-1.72t-1.79-2.55q-.68-1.51-.68-3.65 0-1.99.79-3.78.78-1.8 2.31-3.14t3.81-2.14q2.29-.8 5.28-.8 3.34 0 6.08 1.1t4.57 2.9m16.97 29.32q-4.22 0-6.47-2.37-2.25-2.38-2.25-6.57v-18.05h-3.31q-.63 0-1.07-.41t-.44-1.23v-3.09l5.2-.85 1.63-8.82q.16-.63.6-.97.44-.35 1.14-.35h4.03v10.17h8.63v5.55h-8.63v17.51q0 1.51.74 2.36.74.86 2.03.86.73 0 1.21-.18.49-.17.85-.36.37-.19.65-.36.28-.18.57-.18.34 0 .56.18.22.17.48.52l2.33 3.78q-1.7 1.41-3.91 2.14-2.2.72-4.57.72m26.97-33.32q3.59 0 6.53 1.16 2.95 1.17 5.04 3.31 2.1 2.14 3.23 5.23 1.14 3.09 1.14 6.9 0 3.84-1.14 6.93-1.13 3.08-3.23 5.26-2.09 2.17-5.04 3.34-2.94 1.16-6.53 1.16-3.62 0-6.59-1.16-2.96-1.17-5.05-3.34-2.1-2.18-3.25-5.26-1.15-3.09-1.15-6.93 0-3.81 1.15-6.9t3.25-5.23q2.09-2.14 5.05-3.31 2.97-1.16 6.59-1.16m0 27.31q4.03 0 5.97-2.71 1.93-2.71 1.93-7.94t-1.93-7.97q-1.94-2.74-5.97-2.74-4.1 0-6.07 2.76-1.96 2.75-1.96 7.95t1.96 7.92q1.97 2.73 6.07 2.73m29.67 5.51h-7.78v-32.32h4.76q1.51 0 1.98 1.42l.51 2.39q.85-.94 1.78-1.73.92-.79 1.98-1.35 1.06-.57 2.27-.9t2.66-.33q3.06 0 5.02 1.65 1.97 1.65 2.95 4.4.76-1.61 1.89-2.76t2.49-1.88q1.35-.72 2.88-1.07 1.53-.34 3.07-.34 2.68 0 4.76.82t3.49 2.39q1.42 1.57 2.16 3.84t.74 5.2v20.57h-7.78v-20.57q0-3.09-1.35-4.65-1.36-1.55-3.97-1.55-1.2 0-2.22.4-1.03.41-1.8 1.19-.77.77-1.21 1.93-.44 1.17-.44 2.68v20.57h-7.81v-20.57q0-3.24-1.31-4.72t-3.83-1.48q-1.7 0-3.16.83-1.47.83-2.73 2.28zm51.13-19.88h14.67q0-1.51-.42-2.85-.43-1.34-1.28-2.34-.85-1.01-2.15-1.59-1.31-.59-3.04-.59-3.37 0-5.31 1.92-1.94 1.93-2.47 5.45m19.84 4.7h-20q.19 2.49.88 4.3t1.83 2.99q1.13 1.18 2.69 1.76 1.56.59 3.45.59t3.26-.45q1.37-.44 2.39-.97 1.03-.54 1.8-.98t1.5-.44q.97 0 1.44.73l2.24 2.83q-1.29 1.51-2.9 2.54-1.6 1.02-3.35 1.63-1.75.62-3.56.87t-3.51.25q-3.37 0-6.27-1.12-2.9-1.11-5.04-3.3t-3.37-5.42-1.23-7.48q0-3.31 1.07-6.22 1.07-2.92 3.07-5.08 2-2.15 4.88-3.41 2.89-1.26 6.51-1.26 3.05 0 5.64.97 2.58.98 4.44 2.85 1.86 1.88 2.91 4.6 1.06 2.73 1.06 6.22 0 1.77-.38 2.38-.38.62-1.45.62m14.52-15.19.47 3.66q1.52-2.9 3.6-4.55 2.07-1.66 4.91-1.66 2.24 0 3.59.98l-.5 5.83q-.16.56-.46.8t-.8.24q-.48 0-1.41-.16-.92-.16-1.81-.16-1.29 0-2.3.38-1 .38-1.81 1.09-.8.7-1.41 1.71-.62 1.01-1.15 2.3v19.91h-7.78v-32.32h4.56q1.2 0 1.67.43.47.42.63 1.52m59.54-10.9-2.11 4.01q-.38.66-.81.96-.42.3-1.05.3-.66 0-1.44-.49-.77-.49-1.84-1.09t-2.5-1.09q-1.44-.48-3.39-.48-1.76 0-3.09.42-1.32.43-2.22 1.18-.89.76-1.33 1.81-.45 1.06-.45 2.32 0 1.6.9 2.68.9 1.07 2.38 1.82 1.48.76 3.37 1.36t3.88 1.27q1.98.68 3.87 1.58t3.37 2.27 2.38 3.35q.9 1.99.9 4.82 0 3.09-1.06 5.78-1.05 2.69-3.09 4.69-2.03 2-4.96 3.15t-6.71 1.15q-2.17 0-4.28-.42-2.11-.43-4.05-1.21-1.94-.79-3.64-1.89-1.7-1.11-3.02-2.46l2.49-4.06q.31-.45.82-.74.5-.3 1.07-.3.79 0 1.7.64.91.65 2.17 1.43 1.26.79 2.95 1.44 1.68.64 4.05.64 3.62 0 5.6-1.71 1.99-1.72 1.99-4.93 0-1.8-.9-2.93-.9-1.14-2.38-1.91t-3.37-1.3q-1.89-.54-3.84-1.17-1.96-.63-3.85-1.51t-3.37-2.3-2.37-3.55q-.9-2.12-.9-5.24 0-2.49.99-4.85t2.88-4.19 4.66-2.93q2.78-1.1 6.37-1.1 4.03 0 7.43 1.26t5.8 3.52m32.16 12.95-2.05 2.84q-.35.44-.68.69t-.96.25q-.6 0-1.16-.36-.57-.36-1.36-.82-.78-.46-1.87-.82t-2.69-.36q-2.05 0-3.6.74-1.54.74-2.56 2.13-1.03 1.38-1.53 3.35t-.5 4.46q0 2.58.55 4.6.55 2.01 1.59 3.38t2.52 2.08 3.34.71 3-.46q1.15-.45 1.94-1 .79-.56 1.37-1.01.59-.46 1.31-.46.94 0 1.42.73l2.23 2.83q-1.29 1.51-2.8 2.54-1.51 1.02-3.13 1.63-1.63.62-3.34.87-1.72.25-3.42.25-2.99 0-5.64-1.12-2.65-1.11-4.63-3.26-1.98-2.14-3.13-5.24t-1.15-7.07q0-3.56 1.02-6.6t3.01-5.26q1.98-2.22 4.91-3.48t6.74-1.26q3.63 0 6.35 1.16 2.73 1.17 4.9 3.34m12.03-2.05.47 3.66q1.52-2.9 3.6-4.55 2.07-1.66 4.91-1.66 2.24 0 3.59.98l-.5 5.83q-.16.56-.46.8t-.8.24q-.48 0-1.41-.16-.92-.16-1.81-.16-1.29 0-2.3.38-1 .38-1.81 1.09-.8.7-1.42 1.71-.61 1.01-1.14 2.3v19.91h-7.79v-32.32h4.57q1.2 0 1.67.43.47.42.63 1.52m22.78 10.49h14.68q0-1.51-.43-2.85t-1.28-2.34q-.85-1.01-2.15-1.59-1.31-.59-3.04-.59-3.37 0-5.31 1.92-1.94 1.93-2.47 5.45m19.84 4.7h-20q.19 2.49.88 4.3t1.83 2.99q1.13 1.18 2.69 1.76 1.56.59 3.45.59t3.26-.45q1.37-.44 2.39-.97 1.03-.54 1.8-.98t1.5-.44q.97 0 1.45.73l2.23 2.83q-1.29 1.51-2.9 2.54-1.6 1.02-3.35 1.63-1.75.62-3.56.87t-3.51.25q-3.37 0-6.27-1.12-2.9-1.11-5.04-3.3t-3.37-5.42-1.23-7.48q0-3.31 1.07-6.22 1.07-2.92 3.07-5.08 2-2.15 4.88-3.41 2.89-1.26 6.51-1.26 3.05 0 5.64.97 2.58.98 4.44 2.85 1.86 1.88 2.91 4.6 1.06 2.73 1.06 6.22 0 1.77-.38 2.38-.38.62-1.45.62m13.8-4.7h14.68q0-1.51-.43-2.85-.42-1.34-1.27-2.34-.85-1.01-2.16-1.59-1.31-.59-3.04-.59-3.37 0-5.31 1.92-1.94 1.93-2.47 5.45m19.84 4.7h-20q.19 2.49.88 4.3.7 1.81 1.83 2.99t2.69 1.76q1.56.59 3.45.59t3.26-.45q1.37-.44 2.4-.97 1.02-.54 1.79-.98t1.5-.44q.97 0 1.45.73l2.23 2.83q-1.29 1.51-2.89 2.54-1.61 1.02-3.36 1.63-1.75.62-3.56.87t-3.51.25q-3.37 0-6.27-1.12-2.9-1.11-5.04-3.3t-3.37-5.42-1.23-7.48q0-3.31 1.07-6.22 1.07-2.92 3.07-5.08 2-2.15 4.89-3.41 2.88-1.26 6.5-1.26 3.06 0 5.64.97 2.58.98 4.44 2.85 1.86 1.88 2.91 4.6 1.06 2.73 1.06 6.22 0 1.77-.38 2.38-.38.62-1.45.62m14.4-15.72.53 2.55q.98-.98 2.07-1.81 1.08-.84 2.3-1.42 1.21-.58 2.6-.91 1.38-.33 3.02-.33 2.65 0 4.69.89 2.05.9 3.42 2.52 1.37 1.63 2.08 3.88t.71 4.96v20.57h-7.78v-20.57q0-2.96-1.36-4.58-1.35-1.62-4.12-1.62-2.02 0-3.78.91-1.77.91-3.34 2.49v23.37h-7.78v-32.32h4.75q1.52 0 1.99 1.42"/></svg>